<svg width="48" height="48" viewBox="0 0 48 48" fill="none" xmlns="http://www.w3.org/2000/svg">
<circle cx="24" cy="24" r="23" fill="#171717" stroke="#171717" stroke-width="2"/>
<path d="M36.2335 29.5014V21.3868L24.6341 27.404C24.2018 27.6332 23.7455 27.7479 23.2652 27.7479C22.7849 27.7479 22.3286 27.6332 21.8963 27.404L9.72046 21.0774C9.45629 20.9398 9.27017 20.7679 9.1621 20.5616C9.05403 20.3553 9 20.1261 9 19.8739C9 19.6218 9.05403 19.3925 9.1621 19.1862C9.27017 18.9799 9.45629 18.808 9.72046 18.6705L21.8963 12.3438C22.1124 12.2292 22.3346 12.1433 22.5627 12.086C22.7909 12.0287 23.025 12 23.2652 12C23.5053 12 23.7395 12.0287 23.9676 12.086C24.1958 12.1433 24.4179 12.2292 24.6341 12.3438L38.3589 19.4957C38.5991 19.6103 38.7852 19.7765 38.9173 19.9943C39.0493 20.212 39.1154 20.447 39.1154 20.6991V29.5014C39.1154 29.8911 38.9773 30.2178 38.7011 30.4814C38.4249 30.745 38.0827 30.8768 37.6745 30.8768C37.2662 30.8768 36.924 30.745 36.6478 30.4814C36.3716 30.2178 36.2335 29.8911 36.2335 29.5014ZM21.8963 35.6562L14.6917 31.9427C14.2114 31.6905 13.8391 31.3467 13.5749 30.9112C13.3108 30.4756 13.1787 30.0057 13.1787 29.5014V24.2751L21.8963 28.7794C22.3286 29.0086 22.7849 29.1232 23.2652 29.1232C23.7455 29.1232 24.2018 29.0086 24.6341 28.7794L33.3517 24.2751V29.5014C33.3517 30.0057 33.2196 30.4756 32.9554 30.9112C32.6913 31.3467 32.319 31.6905 31.8387 31.9427L24.6341 35.6562C24.4179 35.7708 24.1958 35.8567 23.9676 35.914C23.7395 35.9713 23.5053 36 23.2652 36C23.025 36 22.7909 35.9713 22.5627 35.914C22.3346 35.8567 22.1124 35.7708 21.8963 35.6562Z" fill="white"/>
</svg>
